<svg width="64" height="64" viewBox="0 0 64 64" fill="none" xmlns="http://www.w3.org/2000/svg">
<path d="M55.8877 48.5856L46.688 32.647C46.4463 32.2127 46.1039 31.8428 45.6896 31.5682C45.2753 31.2936 44.8012 31.1224 44.3071 31.0689C43.813 31.0153 43.3132 31.0811 42.8497 31.2606C42.3863 31.4401 41.9726 31.7282 41.6435 32.1006C40.4756 33.5318 39.0042 34.6856 37.3357 35.4784C35.6672 36.2712 33.8433 36.6833 31.9961 36.6847C30.1488 36.6861 28.3243 36.2769 26.6546 35.4867C24.9848 34.6965 23.5117 33.545 22.3416 32.1156C22.0121 31.744 21.5984 31.4568 21.1351 31.278C20.6718 31.0992 20.1724 31.034 19.6787 31.0878C19.185 31.1417 18.7115 31.3131 18.2976 31.5876C17.8838 31.8621 17.5418 32.2318 17.3002 32.6657L8.11143 48.5857C7.98654 48.8179 7.92162 49.0776 7.92258 49.3413C7.91636 49.5484 7.95154 49.7548 8.02607 49.9482C8.10059 50.1417 8.21296 50.3183 8.35659 50.4677C8.50022 50.6172 8.67223 50.7365 8.86254 50.8187C9.05285 50.9008 9.25764 50.9442 9.46492 50.9462L17.6164 51.0722L21.7708 58.0592C21.9268 58.2782 22.1183 58.4697 22.3373 58.6257C22.7066 58.8251 23.1386 58.8743 23.5433 58.7629C23.9479 58.6514 24.2939 58.3881 24.509 58.0277L31.9996 45.0608L39.4903 58.0277C39.7054 58.3881 40.0513 58.6514 40.456 58.7629C40.8606 58.8743 41.2926 58.8251 41.6619 58.6257C41.8809 58.4697 42.0724 58.2782 42.2284 58.0592L46.3829 51.0722L54.5343 50.9461C54.7415 50.9441 54.9463 50.9007 55.1366 50.8186C55.327 50.7364 55.499 50.6171 55.6426 50.4676C55.7862 50.3182 55.8986 50.1416 55.9731 49.9481C56.0476 49.7547 56.0828 49.5483 56.0766 49.3411C56.0776 49.0775 56.0126 48.8178 55.8877 48.5856Z" fill="#9996FF"/>
<path d="M31.9854 43.0192C35.728 43.0192 39.3866 41.9094 42.4984 39.8301C45.6103 37.7509 48.0357 34.7955 49.4679 31.3378C50.9002 27.8801 51.2749 24.0753 50.5448 20.4046C49.8146 16.7339 48.0124 13.3622 45.366 10.7157C42.7195 8.06932 39.3478 6.26708 35.6771 5.53694C32.0064 4.8068 28.2016 5.18154 24.7439 6.61378C21.2862 8.04602 18.3308 10.4714 16.2516 13.5833C14.1723 16.6952 13.0625 20.3537 13.0625 24.0963C13.0625 29.115 15.0562 33.9281 18.6049 37.4768C22.1536 41.0255 26.9667 43.0192 31.9854 43.0192Z" fill="#18EBED"/>
<path d="M31.9864 43.0184C35.115 43.0194 38.195 42.2437 40.9499 40.7608C43.7048 39.2778 46.0484 37.1342 47.7705 34.5221L46.6882 32.6469C46.4464 32.2127 46.104 31.8428 45.6897 31.5682C45.2754 31.2936 44.8013 31.1224 44.3072 31.0689C43.8131 31.0153 43.3133 31.0811 42.8499 31.2606C42.3864 31.4401 41.9727 31.7281 41.6436 32.1005C40.4757 33.5318 39.0043 34.6856 37.3358 35.4784C35.6673 36.2712 33.8434 36.6833 31.9962 36.6847C30.1489 36.6861 28.3244 36.2769 26.6546 35.4867C24.9849 34.6965 23.5117 33.545 22.3416 32.1155C22.0122 31.744 21.5985 31.4568 21.1352 31.2779C20.6719 31.0991 20.1725 31.0339 19.6788 31.0878C19.1851 31.1417 18.7116 31.3131 18.2977 31.5876C17.8839 31.8621 17.5419 32.2318 17.3003 32.6657L16.2158 34.5446C17.9392 37.1505 20.2818 39.2886 23.034 40.7674C25.7862 42.2462 28.8621 43.0196 31.9864 43.0184Z" fill="#6666FF"/>
<path d="M31.9868 29.3629L26.7868 32.0962L27.7815 26.3069L23.5762 22.2082L29.3868 21.3629L31.9868 16.0962L34.5868 21.3629L40.3975 22.2082L36.1922 26.3069L37.1868 32.0962L31.9868 29.3629Z" fill="white"/>
</svg>
